<?xml version="1.0" encoding="UTF-8"?>
<!DOCTYPE svg PUBLIC "-//W3C//DTD SVG 1.1//EN" "http://www.w3.org/Graphics/SVG/1.1/DTD/svg11.dtd">
<svg xmlns="http://www.w3.org/2000/svg" version="1.1" width="636px" height="240px" style="shape-rendering:geometricPrecision; text-rendering:geometricPrecision; image-rendering:optimizeQuality; fill-rule:evenodd; clip-rule:evenodd" xmlns:xlink="http://www.w3.org/1999/xlink">
<g><path style="opacity:0.952" fill="#009ee3" d="M 11.5,-0.5 C 15.8333,-0.5 20.1667,-0.5 24.5,-0.5C 36.9525,6.6979 39.7858,16.6979 33,29.5C 24.21,37.8022 14.71,38.6355 4.5,32C 2.68589,29.5205 1.01922,27.0205 -0.5,24.5C -0.5,20.1667 -0.5,15.8333 -0.5,11.5C 1.83333,5.83333 5.83333,1.83333 11.5,-0.5 Z"/></g>
<g><path style="opacity:0.955" fill="#009ee3" d="M 88.5,14.5 C 90.1667,14.5 91.8333,14.5 93.5,14.5C 93.5,27.1667 93.5,39.8333 93.5,52.5C 106.167,52.5 118.833,52.5 131.5,52.5C 131.5,61.5 131.5,70.5 131.5,79.5C 118.92,79.8221 106.42,79.4888 94,78.5C 93.3333,92.8333 93.3333,107.167 94,121.5C 95.6132,127.447 99.4465,130.947 105.5,132C 114.16,132.5 122.827,132.666 131.5,132.5C 131.5,141.833 131.5,151.167 131.5,160.5C 118.129,160.832 104.796,160.332 91.5,159C 77.7752,155.609 68.9419,147.109 65,133.5C 63.9001,115.2 63.0668,96.8671 62.5,78.5C 55.8923,79.4617 49.2257,79.7951 42.5,79.5C 42.5,70.5 42.5,61.5 42.5,52.5C 49.5,52.5 56.5,52.5 63.5,52.5C 63.5,41.8333 63.5,31.1667 63.5,20.5C 72.0551,18.9435 80.3884,16.9435 88.5,14.5 Z"/></g>
<g><path style="opacity:0.954" fill="#009ee3" d="M 395.5,14.5 C 397.167,14.5 398.833,14.5 400.5,14.5C 400.5,27.1667 400.5,39.8333 400.5,52.5C 413.5,52.5 426.5,52.5 439.5,52.5C 439.5,61.5 439.5,70.5 439.5,79.5C 426.587,79.8224 413.754,79.4891 401,78.5C 400.333,92.1667 400.333,105.833 401,119.5C 401.948,126.904 406.115,131.071 413.5,132C 422.16,132.5 430.827,132.666 439.5,132.5C 439.5,141.833 439.5,151.167 439.5,160.5C 426.129,160.832 412.796,160.332 399.5,159C 383.928,155.696 374.762,146.196 372,130.5C 370.754,113.205 370.088,95.8716 370,78.5C 363.59,79.4777 357.09,79.811 350.5,79.5C 350.5,70.5 350.5,61.5 350.5,52.5C 357.167,52.5 363.833,52.5 370.5,52.5C 370.5,41.8333 370.5,31.1667 370.5,20.5C 379.066,18.9911 387.4,16.9911 395.5,14.5 Z"/></g>
<g><path style="opacity:0.958" fill="#009ee3" d="M 183.5,49.5 C 222.631,48.2948 243.298,67.2948 245.5,106.5C 245.276,109.855 244.943,113.188 244.5,116.5C 219.5,116.5 194.5,116.5 169.5,116.5C 172.742,130.065 181.409,137.065 195.5,137.5C 205.559,136.926 214.559,133.593 222.5,127.5C 229.017,133.183 235.017,139.35 240.5,146C 224.055,159.865 205.055,165.199 183.5,162C 158.676,157.176 143.842,142.342 139,117.5C 135.508,95.9414 141.342,77.4414 156.5,62C 164.575,55.6261 173.575,51.4595 183.5,49.5 Z M 186.5,75.5 C 202.303,73.3822 211.636,80.0489 214.5,95.5C 199.5,95.5 184.5,95.5 169.5,95.5C 170.944,85.0686 176.61,78.4019 186.5,75.5 Z"/></g>
<g><path style="opacity:0.958" fill="#009ee3" d="M 289.5,49.5 C 307.996,48.1857 325.663,51.3524 342.5,59C 343.022,59.5613 343.355,60.228 343.5,61C 340.299,68.5676 336.966,76.0676 333.5,83.5C 319.653,75.9145 304.986,73.4145 289.5,76C 281.595,80.8677 281.595,85.5344 289.5,90C 300.203,91.8146 310.869,93.8146 321.5,96C 346.201,105.246 352.701,121.746 341,145.5C 328.79,158.241 313.79,163.907 296,162.5C 277.727,163.743 261.893,158.243 248.5,146C 253.99,139.51 259.823,133.343 266,127.5C 280.257,137.618 295.757,140.118 312.5,135C 318.036,130.162 317.703,125.829 311.5,122C 302.608,119.796 293.608,118.129 284.5,117C 261.215,113.081 251.048,99.581 254,76.5C 256.661,65.6801 263.161,58.1801 273.5,54C 278.874,52.1604 284.207,50.6604 289.5,49.5 Z"/></g>
<g><path style="opacity:0.95" fill="#009ee3" d="M 502.5,49.5 C 510.613,49.1139 518.613,49.7805 526.5,51.5C 525.391,61.5939 523.725,71.5939 521.5,81.5C 511.027,77.3986 500.694,77.5653 490.5,82C 486.339,85.154 483.839,89.3206 483,94.5C 482.5,116.497 482.333,138.497 482.5,160.5C 472.5,160.5 462.5,160.5 452.5,160.5C 452.5,126.5 452.5,92.5 452.5,58.5C 462.167,56.5 471.833,54.5 481.5,52.5C 481.335,55.8499 481.502,59.1832 482,62.5C 483.833,59.3333 486.333,56.8333 489.5,55C 493.741,52.6512 498.075,50.8179 502.5,49.5 Z"/></g>
<g><path style="opacity:0.963" fill="#009ee3" d="M 635.5,52.5 C 635.5,88.5 635.5,124.5 635.5,160.5C 625.833,160.5 616.167,160.5 606.5,160.5C 606.665,156.818 606.499,153.152 606,149.5C 594.878,160.994 581.378,165.161 565.5,162C 538.118,153.785 523.785,135.285 522.5,106.5C 523.43,76.7454 538.097,57.912 566.5,50C 581.926,47.3656 595.093,51.5323 606,62.5C 606.49,61.2068 606.657,59.8734 606.5,58.5C 616.167,56.5 625.833,54.5 635.5,52.5 Z M 574.5,77.5 C 594.92,76.0867 605.92,85.5867 607.5,106C 605.587,127.583 593.92,136.917 572.5,134C 557.327,127.494 551.16,115.994 554,99.5C 556.619,88.0535 563.452,80.7201 574.5,77.5 Z"/></g>
<g><path style="opacity:0.946" fill="#009ee3" d="M 28.5,52.5 C 30.1992,52.3398 31.8659,52.5065 33.5,53C 32.5038,88.7604 32.1705,124.594 32.5,160.5C 22.5,160.5 12.5,160.5 2.5,160.5C 2.33335,126.832 2.50002,93.165 3,59.5C 11.5727,57.0919 20.0727,54.7586 28.5,52.5 Z"/></g>
<g><path style="opacity:0.871" fill="#9c9c9b" d="M 278.5,239.5 C 274.5,239.5 270.5,239.5 266.5,239.5C 265.26,237.015 264.26,237.015 263.5,239.5C 259.833,239.5 256.167,239.5 252.5,239.5C 252.333,222.497 252.5,205.497 253,188.5C 256.334,186.958 259.834,185.958 263.5,185.5C 263.334,192.508 263.5,199.508 264,206.5C 275.962,200.601 284.296,203.934 289,216.5C 290.861,226.769 287.361,234.436 278.5,239.5 Z M 269.5,212.5 C 277.712,213.927 280.546,218.594 278,226.5C 270.38,232.781 265.213,231.115 262.5,221.5C 263.042,216.973 265.376,213.973 269.5,212.5 Z"/></g>
<g><path style="opacity:0.892" fill="#9c9c9b" d="M 505.5,239.5 C 502.167,239.5 498.833,239.5 495.5,239.5C 495.5,222.167 495.5,204.833 495.5,187.5C 498.833,186.833 502.167,186.167 505.5,185.5C 505.5,203.5 505.5,221.5 505.5,239.5 Z"/></g>
<g><path style="opacity:0.893" fill="#9c9c9b" d="M 523.5,239.5 C 520.167,239.5 516.833,239.5 513.5,239.5C 513.5,222.167 513.5,204.833 513.5,187.5C 516.833,186.833 520.167,186.167 523.5,185.5C 523.5,203.5 523.5,221.5 523.5,239.5 Z"/></g>
<g><path style="opacity:0.896" fill="#9c9c9b" d="M 635.5,203.5 C 635.5,206.833 635.5,210.167 635.5,213.5C 631.563,213.793 627.73,213.46 624,212.5C 623.833,214.833 623.667,217.167 623.5,219.5C 622.262,228.882 626.262,232.216 635.5,229.5C 635.5,232.833 635.5,236.167 635.5,239.5C 631.5,239.5 627.5,239.5 623.5,239.5C 619.328,238.171 616.161,235.505 614,231.5C 613.831,225.141 613.331,218.807 612.5,212.5C 610.591,213.348 608.591,213.682 606.5,213.5C 606.5,210.167 606.5,206.833 606.5,203.5C 608.833,203.5 611.167,203.5 613.5,203.5C 613.335,200.15 613.502,196.817 614,193.5C 616.997,192.134 620.164,191.467 623.5,191.5C 623.5,195.5 623.5,199.5 623.5,203.5C 627.5,203.5 631.5,203.5 635.5,203.5 Z"/></g>
<g><path style="opacity:0.88" fill="#9c9c9b" d="M 318.5,239.5 C 313.833,239.5 309.167,239.5 304.5,239.5C 294.78,234.382 291.28,226.382 294,215.5C 296.618,207.22 302.284,203.22 311,203.5C 323.794,205.149 329.294,212.483 327.5,225.5C 319.804,225.169 312.138,225.503 304.5,226.5C 306.027,229.521 308.527,231.187 312,231.5C 315.166,230.833 318,229.5 320.5,227.5C 322.5,229.833 324.5,232.167 326.5,234.5C 324.072,236.705 321.405,238.372 318.5,239.5 Z M 307.5,212.5 C 313.221,211.025 316.388,213.025 317,218.5C 312.879,217.861 308.713,217.195 304.5,216.5C 305.172,214.84 306.172,213.507 307.5,212.5 Z"/></g>
<g><path style="opacity:0.882" fill="#9c9c9b" d="M 373.5,239.5 C 368.833,239.5 364.167,239.5 359.5,239.5C 347.987,232.465 345.153,222.798 351,210.5C 358.032,203.099 366.199,201.599 375.5,206C 381.486,211.12 383.819,217.62 382.5,225.5C 374.493,225.334 366.493,225.5 358.5,226C 363.423,232.796 369.09,233.296 375.5,227.5C 377.316,229.817 379.316,231.984 381.5,234C 379.254,236.609 376.587,238.443 373.5,239.5 Z M 362.5,212.5 C 368.221,211.025 371.388,213.025 372,218.5C 367.879,217.861 363.713,217.195 359.5,216.5C 360.172,214.84 361.172,213.507 362.5,212.5 Z"/></g>
<g><path style="opacity:0.876" fill="#9c9c9b" d="M 420.5,239.5 C 416.5,239.5 412.5,239.5 408.5,239.5C 406.01,235.862 403.51,232.195 401,228.5C 398.579,232.071 396.413,235.738 394.5,239.5C 390.5,239.5 386.5,239.5 382.5,239.5C 386.056,233.264 390.056,227.264 394.5,221.5C 390.624,215.58 386.624,209.746 382.5,204C 386.806,204.045 391.139,204.545 395.5,205.5C 397.147,208.473 399.147,211.14 401.5,213.5C 403.853,211.14 405.853,208.473 407.5,205.5C 411.861,204.545 416.194,204.045 420.5,204C 416.494,209.684 412.494,215.35 408.5,221C 412.38,227.264 416.38,233.43 420.5,239.5 Z"/></g>
<g><path style="opacity:0.89" fill="#9c9c9b" d="M 445.5,239.5 C 440.833,239.5 436.167,239.5 431.5,239.5C 417.888,230.543 416.221,219.71 426.5,207C 432.078,203.699 438.078,202.699 444.5,204C 447.916,205.25 450.583,207.417 452.5,210.5C 450.167,212.5 447.833,214.5 445.5,216.5C 439.721,210.71 434.887,211.376 431,218.5C 429.227,225.303 431.727,229.303 438.5,230.5C 441.292,230.186 443.792,229.186 446,227.5C 449.209,229.024 451.209,231.357 452,234.5C 449.674,236.066 447.508,237.732 445.5,239.5 Z"/></g>
<g><path style="opacity:0.877" fill="#9c9c9b" d="M 480.5,239.5 C 475.833,239.5 471.167,239.5 466.5,239.5C 454.557,232.76 451.724,223.094 458,210.5C 465.528,202.572 474.028,201.405 483.5,207C 488.394,212.182 490.394,218.349 489.5,225.5C 481.493,225.334 473.493,225.5 465.5,226C 466.954,229.547 469.62,231.38 473.5,231.5C 476.884,230.772 479.884,229.605 482.5,228C 484.53,229.896 486.197,232.063 487.5,234.5C 485.405,236.609 483.072,238.276 480.5,239.5 Z M 468.5,212.5 C 472.849,211.577 476.183,212.91 478.5,216.5C 474.287,217.195 470.121,217.861 466,218.5C 465.972,216.213 466.805,214.213 468.5,212.5 Z"/></g>
<g><path style="opacity:0.882" fill="#9c9c9b" d="M 554.5,239.5 C 549.833,239.5 545.167,239.5 540.5,239.5C 528.987,232.465 526.153,222.798 532,210.5C 539.032,203.099 547.199,201.599 556.5,206C 562.486,211.12 564.819,217.62 563.5,225.5C 555.493,225.334 547.493,225.5 539.5,226C 544.423,232.796 550.09,233.296 556.5,227.5C 558.316,229.817 560.316,231.984 562.5,234C 560.254,236.609 557.587,238.443 554.5,239.5 Z M 543.5,212.5 C 549.221,211.025 552.388,213.025 553,218.5C 548.879,217.861 544.713,217.195 540.5,216.5C 541.172,214.84 542.172,213.507 543.5,212.5 Z"/></g>
<g><path style="opacity:0.889" fill="#9c9c9b" d="M 602.5,239.5 C 599.167,239.5 595.833,239.5 592.5,239.5C 592.666,232.159 592.5,224.826 592,217.5C 591.343,214.315 589.343,212.648 586,212.5C 582.667,213.167 580.667,215.167 580,218.5C 579.5,225.492 579.334,232.492 579.5,239.5C 576.167,239.5 572.833,239.5 569.5,239.5C 569.333,228.495 569.5,217.495 570,206.5C 572.218,205.528 574.551,204.861 577,204.5C 578.326,204.755 579.326,205.422 580,206.5C 585.163,203.15 590.663,202.65 596.5,205C 599.106,206.938 600.939,209.438 602,212.5C 602.5,221.494 602.666,230.494 602.5,239.5 Z"/></g>
</svg>
