<svg version="1.1" id="Layer_1" xmlns="http://www.w3.org/2000/svg" xmlns:xlink="http://www.w3.org/1999/xlink" x="0px" y="0px"
	 width="100%" viewBox="0 0 900 900" enable-background="new 0 0 900 900" xml:space="preserve">
<path fill="#FFFFFF" opacity="1.000000" stroke="none" 
	d="
M404.000000,901.000000 
	C269.333344,901.000000 135.166672,901.000000 1.000000,901.000000 
	C1.000000,601.000000 1.000000,301.000000 1.000000,1.000000 
	C301.000000,1.000000 601.000000,1.000000 901.000000,1.000000 
	C901.000000,301.000000 901.000000,601.000000 901.000000,901.000000 
	C735.500000,901.000000 570.000000,901.000000 404.000000,901.000000 
M574.949463,329.700684 
	C574.949463,329.700684 574.646118,329.515961 574.519409,329.106842 
	C574.519409,329.106842 574.218750,328.801819 573.981873,328.293152 
	C573.637512,328.289459 573.293152,328.285767 572.024170,328.178802 
	C494.819397,328.168518 417.614655,328.155945 340.409882,328.165375 
	C338.931641,328.165527 337.453430,328.425812 335.342041,328.300262 
	C334.902985,328.390442 334.463898,328.480652 333.279968,328.253754 
	C332.209137,328.273590 331.138336,328.293427 329.553528,328.158081 
	C329.386902,328.441681 329.220276,328.725281 328.796570,329.915497 
	C328.775513,410.292664 328.753906,490.669830 328.743439,571.046997 
	C328.743347,571.705383 328.894073,572.363831 329.097778,573.806885 
	C330.670563,574.091064 332.243134,574.622742 333.816132,574.623840 
	C412.363953,574.677124 490.911804,574.693176 569.459595,574.640991 
	C571.099060,574.639893 572.738037,573.791016 574.657837,573.142151 
	C574.657837,573.142151 574.957764,572.977783 575.477234,573.008606 
	C575.650696,573.011475 575.824158,573.014282 576.580505,573.204163 
	C576.721680,572.589050 576.986328,571.973999 576.986450,571.358887 
	C577.003357,491.753418 577.003906,412.147980 576.958069,332.542542 
	C576.957581,331.688171 576.337891,330.834137 575.607300,329.964966 
	C575.607300,329.964966 575.207520,329.944672 574.949463,329.700684 
M298.202148,433.500000 
	C298.228241,400.508728 298.206238,367.517242 298.322479,334.526306 
	C298.344788,328.190979 298.595398,328.180328 292.187927,328.180450 
	C213.873215,328.181976 135.558456,328.217377 57.243912,328.104218 
	C53.220116,328.098419 52.186337,329.251007 52.192116,333.195862 
	C52.306839,411.510406 52.335155,489.825226 52.174809,568.139587 
	C52.164627,573.111511 53.663017,574.126160 58.341305,574.118530 
	C136.489044,573.990845 214.637146,574.002991 292.784821,574.159485 
	C297.347351,574.168640 298.298340,572.733582 298.284851,568.468018 
	C298.143707,523.812378 298.200409,479.156097 298.202148,433.500000 
M603.373291,566.358337 
	C603.395874,575.731140 602.542847,574.341064 611.290466,574.343323 
	C688.594238,574.363220 765.898071,574.353271 843.201843,574.352173 
	C845.147400,574.352173 847.092896,574.352173 849.172241,574.352173 
	C849.172241,491.928955 849.172241,410.112762 849.172241,328.327820 
	C767.116943,328.327820 685.551697,328.327820 603.369019,328.327820 
	C603.369019,407.557068 603.369019,486.476593 603.373291,566.358337 
z"/>
<path fill="#FEA303" opacity="1.000000" stroke="none" 
	d="
M298.202271,434.000000 
	C298.200409,479.156097 298.143707,523.812378 298.284851,568.468018 
	C298.298340,572.733582 297.347351,574.168640 292.784821,574.159485 
	C214.637146,574.002991 136.489044,573.990845 58.341305,574.118530 
	C53.663017,574.126160 52.164627,573.111511 52.174809,568.139587 
	C52.335155,489.825226 52.306839,411.510406 52.192116,333.195862 
	C52.186337,329.251007 53.220116,328.098419 57.243912,328.104218 
	C135.558456,328.217377 213.873215,328.181976 292.187927,328.180450 
	C298.595398,328.180328 298.344788,328.190979 298.322479,334.526306 
	C298.206238,367.517242 298.228241,400.508728 298.202271,434.000000 
M201.316132,450.500031 
	C201.309967,425.017548 201.305618,399.535034 201.296432,374.052551 
	C201.293961,367.192535 201.287216,367.195496 194.697128,367.201996 
	C181.039993,367.215485 167.382858,367.218353 153.725754,367.247437 
	C152.276321,367.250519 150.827194,367.399078 149.155807,367.492584 
	C149.021210,369.135651 148.823227,370.427979 148.822754,371.720367 
	C148.804321,422.185577 148.845627,472.650909 148.720596,523.115845 
	C148.710770,527.082397 150.235870,527.800293 153.733566,527.763550 
	C168.054001,527.613037 182.379807,527.546021 196.697174,527.805176 
	C200.645615,527.876648 201.378128,526.509888 201.359695,522.950439 
	C201.236237,499.134216 201.308044,475.316986 201.316132,450.500031 
z"/>
<path fill="#FE8202" opacity="1.000000" stroke="none" 
	d="
M334.024841,328.570831 
	C334.463898,328.480652 334.902985,328.390442 335.820404,328.770386 
	C338.221558,329.493256 340.144196,329.966125 342.067139,329.967072 
	C417.219818,330.004242 492.372589,330.021332 567.525208,329.931549 
	C571.337463,329.927002 573.110840,330.458588 573.102234,334.980591 
	C572.950623,414.298798 572.974426,493.617340 572.496094,572.964722 
	C506.201691,573.003052 440.371246,573.020508 374.540833,573.015869 
	C359.710083,573.014771 344.879333,572.936523 330.034149,572.435364 
	C330.014252,493.712524 330.033875,415.448059 329.926849,337.183777 
	C329.921661,333.405579 330.176147,330.270660 334.024841,328.570831 
M428.783112,364.870728 
	C425.187073,364.449219 425.304413,366.792847 425.312439,369.308075 
	C425.361938,384.798035 425.344238,400.288239 425.326630,415.778381 
	C425.324829,417.375671 425.176697,418.972748 425.071594,421.064697 
	C407.252014,421.064697 389.844879,421.064697 372.133667,421.064697 
	C372.133667,438.797241 372.133667,456.006287 372.133667,473.966248 
	C389.977570,473.966248 407.501678,473.966248 425.618835,473.966248 
	C425.618835,491.429993 425.618835,508.149902 425.618835,525.185852 
	C441.865234,525.185852 457.505157,525.024048 473.137848,525.289429 
	C477.537811,525.364014 478.354004,523.752380 478.291931,519.808228 
	C478.076935,506.153595 478.320740,492.491669 478.108490,478.836914 
	C478.047272,474.897705 479.278625,473.676636 483.222321,473.732086 
	C497.710205,473.935913 512.204895,473.672913 526.692078,473.901520 
	C530.749207,473.965546 532.143921,472.986511 532.060669,468.690369 
	C531.786560,454.538086 531.967651,440.377167 531.947632,426.219574 
	C531.945374,424.620789 531.776062,423.022278 531.649292,420.817413 
	C513.650757,420.817413 496.111816,420.817413 478.206848,420.817413 
	C478.206848,403.381073 478.079285,386.580200 478.299530,369.783936 
	C478.352448,365.748444 477.118591,364.701630 473.195984,364.762695 
	C458.708618,364.988159 444.215790,364.863403 428.783112,364.870728 
z"/>
<path fill="#F05F2B" opacity="1.000000" stroke="none" 
	d="
M603.371155,565.877197 
	C603.369019,486.476593 603.369019,407.557068 603.369019,328.327820 
	C685.551697,328.327820 767.116943,328.327820 849.172241,328.327820 
	C849.172241,410.112762 849.172241,491.928955 849.172241,574.352173 
	C847.092896,574.352173 845.147400,574.352173 843.201843,574.352173 
	C765.898071,574.353271 688.594238,574.363220 611.290466,574.343323 
	C602.542847,574.341064 603.395874,575.731140 603.371155,565.877197 
M848.526733,572.220459 
	C848.638245,571.751831 848.847473,571.283264 848.847534,570.814697 
	C848.859619,491.394226 848.859741,411.973724 848.815552,332.553284 
	C848.815063,331.678345 848.229004,330.803711 846.989685,329.944489 
	C768.532288,329.946686 690.074951,329.948517 611.617554,329.951752 
	C604.993652,329.952026 604.984314,329.956451 604.984131,336.288452 
	C604.981750,412.746918 604.981445,489.205414 604.983582,565.663879 
	C604.983765,572.034363 604.993835,572.041565 611.566345,572.042419 
	C690.356812,572.052795 769.147339,572.060913 848.526733,572.220459 
z"/>
<path fill="#ED7910" opacity="1.000000" stroke="none" 
	d="
M572.960083,572.935791 
	C572.974426,493.617340 572.950623,414.298798 573.102234,334.980591 
	C573.110840,330.458588 571.337463,329.927002 567.525208,329.931549 
	C492.372589,330.021332 417.219818,330.004242 342.067139,329.967072 
	C340.144196,329.966125 338.221558,329.493256 336.136963,328.902618 
	C337.453430,328.425812 338.931641,328.165527 340.409882,328.165375 
	C417.614655,328.155945 494.819397,328.168518 572.640381,328.427155 
	C573.577271,328.717621 573.898010,328.759705 574.218750,328.801819 
	C574.218750,328.801819 574.519409,329.106842 574.416138,329.551331 
	C574.422729,330.350220 574.532532,330.704620 574.685791,331.521362 
	C574.737366,406.664856 574.741211,481.346008 574.762451,556.027161 
	C574.764038,561.677368 574.889771,567.327576 574.957764,572.977783 
	C574.957764,572.977783 574.657837,573.142151 574.168457,573.119263 
	C573.439392,573.042786 573.199768,572.989319 572.960083,572.935791 
z"/>
<path fill="#F7A059" opacity="1.000000" stroke="none" 
	d="
M572.496094,572.964722 
	C573.199768,572.989319 573.439392,573.042786 574.028076,573.216919 
	C572.738037,573.791016 571.099060,574.639893 569.459595,574.640991 
	C490.911804,574.693176 412.363953,574.677124 333.816132,574.623840 
	C332.243134,574.622742 330.670563,574.091064 329.305023,573.385742 
	C329.691040,572.940979 329.869812,572.917419 330.048584,572.893799 
	C344.879333,572.936523 359.710083,573.014771 374.540833,573.015869 
	C440.371246,573.020508 506.201691,573.003052 572.496094,572.964722 
z"/>
<path fill="#ED7910" opacity="1.000000" stroke="none" 
	d="
M330.034149,572.435364 
	C329.869812,572.917419 329.691040,572.940979 329.243317,572.993408 
	C328.894073,572.363831 328.743347,571.705383 328.743439,571.046997 
	C328.753906,490.669830 328.775513,410.292664 329.140472,329.422852 
	C329.782471,328.822571 329.976837,328.616943 330.067505,328.313293 
	C331.138336,328.293427 332.209137,328.273590 333.652405,328.412292 
	C330.176147,330.270660 329.921661,333.405579 329.926849,337.183777 
	C330.033875,415.448059 330.014252,493.712524 330.034149,572.435364 
z"/>
<path fill="#EBFFFF" opacity="1.000000" stroke="none" 
	d="
M576.007324,329.979919 
	C576.337891,330.834137 576.957581,331.688171 576.958069,332.542542 
	C577.003906,412.147980 577.003357,491.753418 576.986450,571.358887 
	C576.986328,571.973999 576.721680,572.589050 576.289612,572.640015 
	C576.001587,491.377167 576.004456,410.678558 576.007324,329.979919 
z"/>
<path fill="#FFF7E0" opacity="1.000000" stroke="none" 
	d="
M575.807312,329.972443 
	C576.004456,410.678558 576.001587,491.377167 575.998169,572.546448 
	C575.824158,573.014282 575.650696,573.011475 575.217468,572.993164 
	C574.889771,567.327576 574.764038,561.677368 574.762451,556.027161 
	C574.741211,481.346008 574.737366,406.664856 574.840942,331.249786 
	C575.037659,330.325439 575.122620,330.135040 575.207520,329.944672 
	C575.207520,329.944672 575.607300,329.964966 575.807312,329.972443 
z"/>
<path fill="#F7A059" opacity="1.000000" stroke="none" 
	d="
M575.078491,329.822693 
	C575.122620,330.135040 575.037659,330.325439 574.797607,330.787445 
	C574.532532,330.704620 574.422729,330.350220 574.479492,329.755890 
	C574.646118,329.515961 574.949463,329.700684 575.078491,329.822693 
z"/>
<path fill="#F7A059" opacity="1.000000" stroke="none" 
	d="
M574.100342,328.547485 
	C573.898010,328.759705 573.577271,328.717621 573.102661,328.478790 
	C573.293152,328.285767 573.637512,328.289459 574.100342,328.547485 
z"/>
<path fill="#F7A059" opacity="1.000000" stroke="none" 
	d="
M329.810516,328.235657 
	C329.976837,328.616943 329.782471,328.822571 329.269012,328.969543 
	C329.220276,328.725281 329.386902,328.441681 329.810516,328.235657 
z"/>
<path fill="#FEFEFC" opacity="1.000000" stroke="none" 
	d="
M201.316315,451.000061 
	C201.308044,475.316986 201.236237,499.134216 201.359695,522.950439 
	C201.378128,526.509888 200.645615,527.876648 196.697174,527.805176 
	C182.379807,527.546021 168.054001,527.613037 153.733566,527.763550 
	C150.235870,527.800293 148.710770,527.082397 148.720596,523.115845 
	C148.845627,472.650909 148.804321,422.185577 148.822754,371.720367 
	C148.823227,370.427979 149.021210,369.135651 149.155807,367.492584 
	C150.827194,367.399078 152.276321,367.250519 153.725754,367.247437 
	C167.382858,367.218353 181.039993,367.215485 194.697128,367.201996 
	C201.287216,367.195496 201.293961,367.192535 201.296432,374.052551 
	C201.305618,399.535034 201.309967,425.017548 201.316315,451.000061 
z"/>
<path fill="#FEFDFB" opacity="1.000000" stroke="none" 
	d="
M429.254089,364.870483 
	C444.215790,364.863403 458.708618,364.988159 473.195984,364.762695 
	C477.118591,364.701630 478.352448,365.748444 478.299530,369.783936 
	C478.079285,386.580200 478.206848,403.381073 478.206848,420.817413 
	C496.111816,420.817413 513.650757,420.817413 531.649292,420.817413 
	C531.776062,423.022278 531.945374,424.620789 531.947632,426.219574 
	C531.967651,440.377167 531.786560,454.538086 532.060669,468.690369 
	C532.143921,472.986511 530.749207,473.965546 526.692078,473.901520 
	C512.204895,473.672913 497.710205,473.935913 483.222321,473.732086 
	C479.278625,473.676636 478.047272,474.897705 478.108490,478.836914 
	C478.320740,492.491669 478.076935,506.153595 478.291931,519.808228 
	C478.354004,523.752380 477.537811,525.364014 473.137848,525.289429 
	C457.505157,525.024048 441.865234,525.185852 425.618835,525.185852 
	C425.618835,508.149902 425.618835,491.429993 425.618835,473.966248 
	C407.501678,473.966248 389.977570,473.966248 372.133667,473.966248 
	C372.133667,456.006287 372.133667,438.797241 372.133667,421.064697 
	C389.844879,421.064697 407.252014,421.064697 425.071594,421.064697 
	C425.176697,418.972748 425.324829,417.375671 425.326630,415.778381 
	C425.344238,400.288239 425.361938,384.798035 425.312439,369.308075 
	C425.304413,366.792847 425.187073,364.449219 429.254089,364.870483 
z"/>
<path fill="#FE5001" opacity="1.000000" stroke="none" 
	d="
M847.937805,572.069641 
	C769.147339,572.060913 690.356812,572.052795 611.566345,572.042419 
	C604.993835,572.041565 604.983765,572.034363 604.983582,565.663879 
	C604.981445,489.205414 604.981750,412.746918 604.984131,336.288452 
	C604.984314,329.956451 604.993652,329.952026 611.617554,329.951752 
	C690.074951,329.948517 768.532288,329.946686 847.483398,330.411987 
	C847.963989,411.276215 847.950867,491.672913 847.937805,572.069641 
M750.929871,492.500000 
	C750.929871,450.931213 750.929871,409.362427 750.929871,367.551453 
	C733.122864,367.551453 715.917358,367.551453 698.560303,367.551453 
	C698.560303,421.038361 698.560303,474.186157 698.560303,527.309570 
	C716.175049,527.309570 733.396301,527.309570 750.929871,527.309570 
	C750.929871,515.781921 750.929871,504.640961 750.929871,492.500000 
M752.995117,485.500000 
	C752.995117,446.438629 752.995117,407.377228 752.995117,368.315857 
	C752.759155,368.317505 752.523193,368.319122 752.287231,368.320770 
	C752.287231,421.173584 752.287231,474.026367 752.287231,526.879211 
	C752.523193,526.880188 752.759155,526.881226 752.995117,526.882202 
	C752.995117,513.421448 752.995117,499.960724 752.995117,485.500000 
z"/>
<path fill="#EF3900" opacity="1.000000" stroke="none" 
	d="
M848.232300,572.145020 
	C847.950867,491.672913 847.963989,411.276215 847.946716,330.404236 
	C848.229004,330.803711 848.815063,331.678345 848.815552,332.553284 
	C848.859741,411.973724 848.859619,491.394226 848.847534,570.814697 
	C848.847473,571.283264 848.638245,571.751831 848.232300,572.145020 
z"/>
<path fill="#FEFCFA" opacity="1.000000" stroke="none" 
	d="
M750.929871,493.000000 
	C750.929871,504.640961 750.929871,515.781921 750.929871,527.309570 
	C733.396301,527.309570 716.175049,527.309570 698.560303,527.309570 
	C698.560303,474.186157 698.560303,421.038361 698.560303,367.551453 
	C715.917358,367.551453 733.122864,367.551453 750.929871,367.551453 
	C750.929871,409.362427 750.929871,450.931213 750.929871,493.000000 
z"/>
<path fill="#FF3800" opacity="1.000000" stroke="none" 
	d="
M752.995117,486.000000 
	C752.995117,499.960724 752.995117,513.421448 752.995117,526.882202 
	C752.759155,526.881226 752.523193,526.880188 752.287231,526.879211 
	C752.287231,474.026367 752.287231,421.173584 752.287231,368.320770 
	C752.523193,368.319122 752.759155,368.317505 752.995117,368.315857 
	C752.995117,407.377228 752.995117,446.438629 752.995117,486.000000 
z"/>
</svg>