<?xml version="1.0" standalone="no"?>
<!DOCTYPE svg PUBLIC "-//W3C//DTD SVG 20010904//EN"
 "http://www.w3.org/TR/2001/REC-SVG-20010904/DTD/svg10.dtd">
<svg version="1.0" xmlns="http://www.w3.org/2000/svg"
 width="416.000000pt" height="378.000000pt" viewBox="0 0 416.000000 378.000000"
 preserveAspectRatio="xMidYMid meet">

<g transform="translate(0.000000,378.000000) scale(0.100000,-0.100000)"
fill="#000000" stroke="none">
<path d="M968 2838 c11 -18 53 -91 94 -163 151 -263 275 -477 433 -750 89
-154 201 -349 249 -432 48 -84 91 -155 95 -157 4 -3 51 73 106 167 54 95 132
229 172 299 66 113 73 129 62 150 -24 47 -141 248 -144 248 -2 0 -24 -36 -49
-80 -25 -44 -67 -116 -92 -160 -25 -44 -48 -80 -52 -80 -4 0 -95 152 -201 338
-107 185 -235 408 -285 494 l-91 158 -158 0 -159 0 20 -32z"/>
<path d="M1823 2863 c3 -5 83 -145 180 -313 96 -168 214 -372 262 -455 l86
-150 -22 -40 c-34 -60 -257 -443 -338 -579 -39 -66 -71 -123 -71 -128 0 -9
153 -279 156 -275 2 2 253 435 452 782 296 515 636 1103 654 1133 l20 32 -164
0 -164 0 -44 -82 c-50 -95 -187 -340 -267 -477 l-55 -93 -74 128 c-41 71 -125
218 -187 326 l-112 197 -158 1 c-87 0 -156 -3 -154 -7z"/>
</g>
</svg>
